<svg xmlns="http://www.w3.org/2000/svg" xmlns:xlink="http://www.w3.org/1999/xlink" width="477.75" zoomAndPan="magnify" viewBox="0 0 477.75 219.75" height="219.75" preserveAspectRatio="xMidYMid meet" version="1.0"><defs><filter x="0%" y="0%" width="100%" xlink:type="simple" xlink:actuate="onLoad" height="100%" id="id1" xlink:show="other"><feColorMatrix values="0 0 0 0 1 0 0 0 0 1 0 0 0 0 1 0 0 0 1 0" color-interpolation-filters="sRGB"/></filter><clipPath id="id2"><path d="M 363 177 L 415 177 L 415 213.433594 L 363 213.433594 Z M 363 177 " clip-rule="nonzero"/></clipPath><mask id="id3"><g filter="url(#id1)"><rect x="-47.775" width="573.3" fill="rgb(0%, 0%, 0%)" y="-21.975" height="263.7" fill-opacity="0.9882"/></g></mask><clipPath id="id4"><path d="M 1 1 L 51.875 1 L 51.875 36.433594 L 1 36.433594 Z M 1 1 " clip-rule="nonzero"/></clipPath><clipPath id="id5"><rect x="0" width="52" y="0" height="37"/></clipPath><clipPath id="id6"><path d="M 328 179 L 370 179 L 370 213.433594 L 328 213.433594 Z M 328 179 " clip-rule="nonzero"/></clipPath><mask id="id7"><g filter="url(#id1)"><rect x="-47.775" width="573.3" fill="rgb(0%, 0%, 0%)" y="-21.975" height="263.7" fill-opacity="0.9882"/></g></mask><clipPath id="id8"><path d="M 0.09375 1 L 41 1 L 41 34.433594 L 0.09375 34.433594 Z M 0.09375 1 " clip-rule="nonzero"/></clipPath><clipPath id="id9"><rect x="0" width="42" y="0" height="35"/></clipPath><clipPath id="id10"><path d="M 414 181 L 458 181 L 458 213.433594 L 414 213.433594 Z M 414 181 " clip-rule="nonzero"/></clipPath><mask id="id11"><g filter="url(#id1)"><rect x="-47.775" width="573.3" fill="rgb(0%, 0%, 0%)" y="-21.975" height="263.7" fill-opacity="0.9882"/></g></mask><clipPath id="id12"><path d="M 1 1 L 42 1 L 42 32.433594 L 1 32.433594 Z M 1 1 " clip-rule="nonzero"/></clipPath><clipPath id="id13"><rect x="0" width="44" y="0" height="33"/></clipPath><clipPath id="id14"><path d="M 375 139.230469 L 407 139.230469 L 407 173 L 375 173 Z M 375 139.230469 " clip-rule="nonzero"/></clipPath><clipPath id="id15"><path d="M 309.933594 171 L 340 171 L 340 211 L 309.933594 211 Z M 309.933594 171 " clip-rule="nonzero"/></clipPath><mask id="id16"><g filter="url(#id1)"><rect x="-47.775" width="573.3" fill="rgb(0%, 0%, 0%)" y="-21.975" height="263.7" fill-opacity="0.9882"/></g></mask><clipPath id="id17"><rect x="0" width="31" y="0" height="40"/></clipPath><mask id="id18"><g filter="url(#id1)"><rect x="-47.775" width="573.3" fill="rgb(0%, 0%, 0%)" y="-21.975" height="263.7" fill-opacity="0.9882"/></g></mask><clipPath id="id19"><rect x="0" width="30" y="0" height="31"/></clipPath><clipPath id="id20"><path d="M 446 176 L 473.332031 176 L 473.332031 212 L 446 212 Z M 446 176 " clip-rule="nonzero"/></clipPath><mask id="id21"><g filter="url(#id1)"><rect x="-47.775" width="573.3" fill="rgb(0%, 0%, 0%)" y="-21.975" height="263.7" fill-opacity="0.9882"/></g></mask><clipPath id="id22"><rect x="0" width="28" y="0" height="36"/></clipPath><mask id="id23"><g filter="url(#id1)"><rect x="-47.775" width="573.3" fill="rgb(0%, 0%, 0%)" y="-21.975" height="263.7" fill-opacity="0.9882"/></g></mask><clipPath id="id24"><path d="M 2 1 L 16 1 L 16 19.460938 L 2 19.460938 Z M 2 1 " clip-rule="nonzero"/></clipPath><clipPath id="id25"><rect x="0" width="17" y="0" height="20"/></clipPath></defs><g clip-path="url(#id2)"><g mask="url(#id3)"><g transform="matrix(1, 0, 0, 1, 363, 177)"><g clip-path="url(#id5)"><g clip-path="url(#id4)"><path fill="rgb(93.328857%, 42.349243%, 30.198669%)" d="M 18.550781 1.699219 C 14.730469 3.390625 11.097656 7.292969 8.140625 12.679688 C 4.460938 19.386719 2.054688 28.105469 1.671875 36.417969 L 51.109375 36.417969 C 50.644531 28.277344 48.28125 19.792969 44.683594 13.242188 C 41.921875 8.210938 38.570312 4.484375 35.027344 2.636719 L 34.984375 2.636719 C 32.765625 3.570312 30.382812 4.128906 27.851562 4.128906 C 24.5 4.128906 21.347656 3.21875 18.550781 1.699219 Z M 18.550781 1.699219 " fill-opacity="1" fill-rule="nonzero"/></g></g></g></g></g><g clip-path="url(#id6)"><g mask="url(#id7)"><g transform="matrix(1, 0, 0, 1, 328, 179)"><g clip-path="url(#id9)"><g clip-path="url(#id8)"><path fill="rgb(60.389709%, 60.389709%, 60.389709%)" d="M 14.398438 1.007812 C 7.300781 7.933594 1.9375 21.359375 0.886719 34.414062 L 32.425781 34.414062 C 32.808594 25.273438 35.378906 15.894531 39.472656 8.433594 C 39.648438 8.113281 39.863281 7.816406 40.046875 7.5 C 38.875 5.570312 37.582031 3.824219 36.238281 2.3125 C 33.324219 4.242188 29.953125 5.539062 26.269531 5.539062 C 21.761719 5.539062 17.65625 3.789062 14.398438 1.003906 Z M 14.398438 1.007812 " fill-opacity="1" fill-rule="nonzero"/></g></g></g></g></g><g clip-path="url(#id10)"><g mask="url(#id11)"><g transform="matrix(1, 0, 0, 1, 414, 181)"><g clip-path="url(#id13)"><g clip-path="url(#id12)"><path fill="rgb(60.389709%, 60.389709%, 60.389709%)" d="M 10.917969 1.859375 C 7.191406 5.496094 3.992188 11.136719 1.75 17.511719 C 3.222656 22.296875 4.152344 27.386719 4.40625 32.417969 L 41.96875 32.417969 C 41.070312 21.152344 36.808594 9.660156 30.941406 3.070312 C 28.265625 4.84375 25.195312 6.0625 21.816406 6.0625 C 17.675781 6.0625 13.910156 4.414062 10.917969 1.855469 Z M 10.917969 1.859375 " fill-opacity="1" fill-rule="nonzero"/></g></g></g></g></g><g clip-path="url(#id14)"><path fill="rgb(59.999084%, 59.609985%, 59.609985%)" d="M 390.867188 139.199219 C 382.105469 139.199219 375.007812 146.640625 375.007812 155.882812 C 375.007812 165.121094 382.105469 172.609375 390.867188 172.609375 C 399.625 172.609375 406.679688 165.125 406.679688 155.882812 C 406.679688 146.640625 399.625 139.199219 390.867188 139.199219 Z M 390.867188 139.199219 " fill-opacity="1" fill-rule="nonzero"/></g><g clip-path="url(#id15)"><g mask="url(#id16)"><g transform="matrix(1, 0, 0, 1, 309, 171)"><g clip-path="url(#id17)"><path fill="rgb(60.778809%, 60.778809%, 60.778809%)" d="M 5.414062 36.296875 L 4.890625 35.9375 C 4.664062 35.785156 4.457031 35.609375 4.265625 35.414062 C 4.074219 35.222656 3.90625 35.007812 3.753906 34.78125 C 3.605469 34.550781 3.476562 34.308594 3.375 34.054688 C 3.269531 33.800781 3.191406 33.539062 3.136719 33.269531 C 3.085938 33 3.058594 32.730469 3.054688 32.457031 C 3.054688 32.179688 3.082031 31.910156 3.132812 31.640625 C 3.183594 31.371094 3.261719 31.109375 3.363281 30.859375 C 3.46875 30.605469 3.59375 30.367188 3.742188 30.136719 L 20.066406 5.269531 C 20.214844 5.042969 20.386719 4.832031 20.574219 4.636719 C 20.765625 4.445312 20.972656 4.273438 21.195312 4.121094 C 21.421875 3.972656 21.65625 3.84375 21.90625 3.738281 C 22.15625 3.636719 22.410156 3.558594 22.675781 3.503906 C 22.941406 3.453125 23.207031 3.429688 23.476562 3.429688 C 23.746094 3.429688 24.011719 3.457031 24.277344 3.511719 C 24.542969 3.566406 24.800781 3.648438 25.050781 3.753906 C 25.296875 3.859375 25.535156 3.992188 25.761719 4.144531 L 26.285156 4.503906 C 26.507812 4.65625 26.714844 4.832031 26.90625 5.027344 C 27.097656 5.21875 27.269531 5.433594 27.421875 5.660156 C 27.570312 5.890625 27.699219 6.132812 27.800781 6.386719 C 27.90625 6.640625 27.984375 6.902344 28.035156 7.171875 C 28.089844 7.441406 28.117188 7.710938 28.117188 7.984375 C 28.117188 8.261719 28.09375 8.53125 28.042969 8.800781 C 27.988281 9.070312 27.910156 9.328125 27.808594 9.582031 C 27.707031 9.835938 27.582031 10.074219 27.433594 10.304688 L 11.109375 35.171875 C 10.957031 35.398438 10.789062 35.609375 10.597656 35.804688 C 10.410156 35.996094 10.203125 36.167969 9.976562 36.320312 C 9.753906 36.46875 9.515625 36.597656 9.269531 36.703125 C 9.019531 36.804688 8.761719 36.882812 8.5 36.9375 C 8.234375 36.988281 7.96875 37.011719 7.699219 37.011719 C 7.429688 37.011719 7.160156 36.984375 6.894531 36.929688 C 6.632812 36.875 6.375 36.792969 6.125 36.6875 C 5.875 36.582031 5.640625 36.449219 5.414062 36.296875 " fill-opacity="1" fill-rule="nonzero"/></g></g></g></g><g mask="url(#id18)"><g transform="matrix(1, 0, 0, 1, 421, 150)"><g clip-path="url(#id19)"><path fill="rgb(93.328857%, 42.349243%, 30.198669%)" d="M 14.839844 1.53125 C 7.527344 1.53125 1.605469 7.738281 1.605469 15.449219 C 1.605469 23.160156 7.527344 29.410156 14.839844 29.410156 C 22.148438 29.410156 28.035156 23.160156 28.035156 15.449219 C 28.035156 7.738281 22.148438 1.53125 14.839844 1.53125 Z M 14.839844 1.53125 " fill-opacity="1" fill-rule="nonzero"/></g></g></g><path fill="rgb(93.328857%, 42.349243%, 30.198669%)" d="M 354.285156 146.136719 C 346.320312 146.136719 339.871094 152.898438 339.871094 161.300781 C 339.871094 169.699219 346.320312 176.503906 354.285156 176.503906 C 362.246094 176.503906 368.65625 169.699219 368.65625 161.300781 C 368.65625 152.902344 362.246094 146.136719 354.285156 146.136719 Z M 354.285156 146.136719 " fill-opacity="1" fill-rule="nonzero"/><g clip-path="url(#id20)"><g mask="url(#id21)"><g transform="matrix(1, 0, 0, 1, 446, 176)"><g clip-path="url(#id22)"><path fill="rgb(60.778809%, 60.778809%, 60.778809%)" d="M 23.46875 31.855469 C 23.691406 31.703125 23.894531 31.535156 24.082031 31.339844 C 24.269531 31.148438 24.4375 30.941406 24.582031 30.714844 C 24.730469 30.488281 24.851562 30.25 24.953125 29.996094 C 25.054688 29.746094 25.128906 29.484375 25.179688 29.21875 C 25.230469 28.953125 25.253906 28.679688 25.253906 28.410156 C 25.25 28.136719 25.222656 27.867188 25.167969 27.597656 C 25.117188 27.328125 25.039062 27.070312 24.933594 26.816406 C 24.832031 26.566406 24.703125 26.324219 24.554688 26.097656 L 10.828125 5.183594 C 10.679688 4.957031 10.507812 4.746094 10.320312 4.554688 C 10.128906 4.359375 9.925781 4.1875 9.703125 4.035156 C 9.480469 3.882812 9.246094 3.753906 9 3.648438 C 8.753906 3.542969 8.5 3.460938 8.238281 3.410156 C 7.976562 3.355469 7.710938 3.328125 7.445312 3.324219 C 7.179688 3.324219 6.917969 3.351562 6.65625 3.402344 C 6.394531 3.453125 6.140625 3.53125 5.894531 3.636719 C 5.652344 3.738281 5.417969 3.867188 5.199219 4.015625 C 4.976562 4.167969 4.773438 4.339844 4.585938 4.53125 C 4.398438 4.722656 4.230469 4.933594 4.085938 5.160156 C 3.9375 5.386719 3.816406 5.625 3.714844 5.875 C 3.613281 6.128906 3.539062 6.386719 3.488281 6.65625 C 3.4375 6.921875 3.414062 7.191406 3.414062 7.464844 C 3.417969 7.738281 3.445312 8.007812 3.5 8.273438 C 3.550781 8.542969 3.628906 8.804688 3.734375 9.054688 C 3.835938 9.308594 3.964844 9.546875 4.113281 9.773438 L 17.839844 30.6875 C 17.988281 30.914062 18.160156 31.125 18.347656 31.320312 C 18.539062 31.511719 18.742188 31.6875 18.964844 31.839844 C 19.1875 31.992188 19.421875 32.121094 19.667969 32.226562 C 19.914062 32.332031 20.167969 32.410156 20.429688 32.464844 C 20.691406 32.519531 20.957031 32.546875 21.222656 32.546875 C 21.488281 32.546875 21.75 32.523438 22.011719 32.46875 C 22.273438 32.417969 22.527344 32.339844 22.773438 32.238281 C 23.015625 32.132812 23.25 32.007812 23.46875 31.855469 " fill-opacity="1" fill-rule="nonzero"/></g></g></g></g><g mask="url(#id23)"><g transform="matrix(1, 0, 0, 1, 404, 174)"><g clip-path="url(#id25)"><g clip-path="url(#id24)"><path fill="rgb(60.778809%, 60.778809%, 60.778809%)" d="M 6.703125 1.167969 C 5.925781 1.160156 5.140625 1.394531 4.445312 1.867188 L 3.78125 2.335938 C 1.925781 3.605469 1.457031 6.164062 2.71875 8.082031 L 10.027344 19.25 C 10.574219 18.042969 11.179688 16.875 11.796875 15.746094 C 12.796875 13.925781 13.894531 12.222656 15.074219 10.652344 L 10.070312 3.035156 C 9.28125 1.835938 8.003906 1.179688 6.703125 1.167969 Z M 6.703125 1.167969 " fill-opacity="1" fill-rule="nonzero"/></g></g></g></g></svg>