<svg xmlns="http://www.w3.org/2000/svg" xmlns:xlink="http://www.w3.org/1999/xlink" width="477.75" zoomAndPan="magnify" viewBox="0 0 477.75 219.75" height="219.75" preserveAspectRatio="xMidYMid meet" version="1.0"><defs><clipPath id="id1"><path d="M 339 138.007812 L 467.980469 138.007812 L 467.980469 205 L 339 205 Z M 339 138.007812 " clip-rule="nonzero"/></clipPath><clipPath id="id2"><path d="M 393 176 L 426 176 L 426 211.464844 L 393 211.464844 Z M 393 176 " clip-rule="nonzero"/></clipPath></defs><g clip-path="url(#id1)"><path fill="rgb(93.328857%, 42.349243%, 30.198669%)" d="M 467.273438 201.894531 C 467.273438 203.59375 465.851562 205 464.140625 205 C 462.445312 205 461.011719 203.59375 461.011719 201.894531 C 461.011719 200.328125 461.011719 198.636719 460.875 197.074219 L 446.652344 197.074219 C 444.957031 197.074219 443.519531 195.65625 443.519531 193.953125 C 443.519531 192.265625 444.957031 190.847656 446.652344 190.847656 L 459.882812 190.847656 C 457.605469 179.515625 452.0625 169.320312 444.238281 161.382812 L 434.421875 171.160156 C 433.855469 171.726562 433 172.144531 432.15625 172.144531 C 431.292969 172.144531 430.4375 171.863281 429.878906 171.160156 C 428.59375 169.886719 428.59375 167.902344 429.878906 166.769531 L 439.410156 157.277344 C 429.730469 149.484375 417.503906 144.675781 404.132812 144.53125 L 404.132812 158.273438 C 404.132812 159.964844 402.710938 161.382812 401.015625 161.382812 C 399.308594 161.382812 397.882812 159.964844 397.882812 158.273438 L 397.882812 144.675781 C 386.085938 145.8125 375.417969 150.199219 366.742188 157.277344 L 376.976562 167.472656 C 378.265625 168.753906 378.265625 170.738281 376.976562 171.863281 C 376.40625 172.429688 375.554688 172.710938 374.699219 172.710938 C 373.859375 172.710938 373.140625 172.429688 372.433594 171.863281 L 362.050781 161.382812 C 354.089844 169.320312 348.546875 179.515625 346.269531 190.984375 L 359.203125 190.984375 C 360.910156 190.984375 362.335938 192.402344 362.335938 194.101562 C 362.335938 195.804688 360.910156 197.222656 359.203125 197.222656 L 345.265625 197.222656 C 345.128906 198.773438 345.128906 200.328125 345.128906 201.894531 C 345.128906 203.59375 343.707031 205 341.996094 205 C 340.289062 205 339.015625 203.730469 339.015625 201.894531 C 339.015625 199.195312 339.152344 196.652344 339.582031 194.101562 C 339.582031 193.820312 339.582031 193.671875 339.582031 193.535156 C 341.578125 178.234375 348.964844 164.785156 359.773438 154.871094 C 359.773438 154.871094 359.773438 154.726562 359.921875 154.726562 C 360.058594 154.589844 360.203125 154.441406 360.488281 154.304688 C 371.148438 144.675781 385.222656 138.722656 400.445312 138.019531 C 400.730469 138.019531 401.015625 138.019531 401.4375 138.019531 L 401.585938 138.019531 C 402.152344 138.019531 402.574219 138.019531 403.144531 138.019531 C 419.496094 138.019531 434.570312 144.246094 445.945312 154.304688 C 446.082031 154.441406 446.230469 154.589844 446.515625 154.726562 C 446.515625 154.726562 446.652344 154.871094 446.652344 155.007812 C 457.320312 164.785156 464.710938 178.234375 466.839844 193.386719 C 466.839844 193.671875 466.839844 193.820312 466.839844 194.101562 C 467.136719 196.507812 467.273438 199.195312 467.273438 201.894531 " fill-opacity="1" fill-rule="nonzero"/></g><g clip-path="url(#id2)"><path fill="rgb(93.328857%, 42.349243%, 30.198669%)" d="M 400.445312 205 C 400.011719 204.71875 399.875 204.296875 399.726562 203.730469 C 399.726562 203.164062 399.875 202.742188 400.160156 202.3125 C 400.445312 201.894531 400.867188 201.746094 401.4375 201.609375 L 401.585938 201.609375 C 402.003906 201.609375 402.4375 201.746094 402.710938 202.03125 C 403.144531 202.3125 403.28125 202.878906 403.28125 203.3125 C 403.28125 203.730469 403.144531 204.160156 402.859375 204.582031 C 402.574219 205 402.152344 205.148438 401.585938 205.148438 C 401.300781 205.433594 400.867188 205.285156 400.445312 205 Z M 424.609375 176.964844 C 423.332031 175.832031 421.339844 175.980469 420.203125 177.25 L 404.28125 195.65625 C 403.28125 195.371094 402.152344 195.234375 401.152344 195.234375 C 399.023438 195.371094 397.03125 196.371094 395.605469 198.070312 C 392.621094 201.460938 393.042969 206.703125 396.460938 209.539062 C 397.882812 210.808594 399.875 211.523438 401.71875 211.523438 C 402.003906 211.523438 402.152344 211.523438 402.289062 211.523438 C 404.417969 211.375 406.410156 210.386719 407.835938 208.6875 C 410.113281 206.136719 410.398438 202.597656 408.972656 199.761719 L 424.902344 181.21875 C 426.03125 180.085938 425.894531 178.097656 424.609375 176.964844 " fill-opacity="1" fill-rule="nonzero"/></g></svg>