<svg xmlns="http://www.w3.org/2000/svg" xmlns:xlink="http://www.w3.org/1999/xlink" width="969.75" zoomAndPan="magnify" viewBox="0 0 969.75 347.999987" height="347.999987" preserveAspectRatio="xMidYMid meet" version="1.0"><defs><clipPath id="id1"><path d="M 332 0.0429688 L 969.5 0.0429688 L 969.5 347.953125 L 332 347.953125 Z M 332 0.0429688 " clip-rule="nonzero"/></clipPath><clipPath id="id2"><path d="M 801.371094 206 L 950.792969 206 L 950.792969 335.027344 L 801.371094 335.027344 Z M 801.371094 206 " clip-rule="nonzero"/></clipPath><clipPath id="id3"><path d="M 791.792969 144.539062 L 944 144.539062 L 944 328 L 791.792969 328 Z M 791.792969 144.539062 " clip-rule="nonzero"/></clipPath></defs><g clip-path="url(#id1)"><path fill="rgb(10.5896%, 12.159729%, 16.079712%)" d="M 982.933594 -4.511719 L 973.132812 -4.511719 L 972.398438 -3.777344 L 332.160156 610.488281 L 983.421875 610.488281 L 1624.398438 -4.511719 L 982.933594 -4.511719 " fill-opacity="1" fill-rule="nonzero"/></g><g clip-path="url(#id2)"><path fill="rgb(93.328857%, 42.349243%, 30.198669%)" d="M 950.796875 206.0625 L 926.144531 206.0625 L 926.144531 335.027344 L 950.796875 335.027344 Z M 909.277344 234.148438 L 884.628906 234.148438 L 884.628906 335.027344 L 909.277344 335.027344 Z M 867.761719 254.691406 L 843.117188 254.691406 L 843.117188 335.027344 L 867.761719 335.027344 Z M 826.25 335.027344 L 801.601562 335.027344 L 801.601562 270.238281 L 826.25 270.238281 L 826.25 335.027344 " fill-opacity="1" fill-rule="nonzero"/></g><g clip-path="url(#id3)"><path fill="rgb(100%, 100%, 100%)" d="M 932.59375 149.8125 C 922.210938 165.511719 904.167969 186.589844 875.550781 202.097656 C 846.816406 217.6875 819.113281 221.382812 799.238281 221.382812 C 797.097656 221.382812 795.074219 221.34375 793.128906 221.269531 C 792.367188 221.230469 791.792969 220.621094 791.832031 219.859375 C 791.871094 219.097656 792.519531 218.5625 793.246094 218.5625 C 812.933594 219.324219 843 216.695312 874.289062 199.738281 C 903.097656 184.113281 920.992188 162.730469 931.101562 147.222656 L 908.015625 147.222656 C 907.253906 147.222656 906.679688 146.609375 906.679688 145.886719 C 906.679688 145.164062 907.296875 144.554688 908.015625 144.554688 L 933.964844 144.554688 C 934.726562 144.554688 935.300781 145.164062 935.300781 145.886719 L 935.300781 172.222656 C 935.300781 172.984375 934.691406 173.554688 933.964844 173.554688 C 933.242188 173.554688 932.628906 172.945312 932.628906 172.222656 L 932.628906 149.8125 Z M 941.023438 325.042969 L 919.082031 325.042969 L 919.082031 198.785156 L 941.023438 198.785156 Z M 942.359375 196.078125 L 917.714844 196.078125 C 916.949219 196.078125 916.378906 196.6875 916.378906 197.410156 L 916.378906 326.375 C 916.378906 327.136719 916.984375 327.710938 917.714844 327.710938 L 942.359375 327.710938 C 943.121094 327.710938 943.695312 327.101562 943.695312 326.375 L 943.695312 197.449219 C 943.738281 196.6875 943.121094 196.078125 942.359375 196.078125 Z M 899.507812 325.042969 L 877.570312 325.042969 L 877.570312 226.871094 L 899.507812 226.871094 Z M 900.84375 224.164062 L 876.199219 224.164062 C 875.4375 224.164062 874.863281 224.773438 874.863281 225.5 L 874.863281 326.375 C 874.863281 327.136719 875.46875 327.710938 876.199219 327.710938 L 900.84375 327.710938 C 901.609375 327.710938 902.179688 327.101562 902.179688 326.375 L 902.179688 225.5 C 902.21875 224.773438 901.609375 224.164062 900.84375 224.164062 Z M 858 325.042969 L 836.058594 325.042969 L 836.058594 247.414062 L 858 247.414062 Z M 859.332031 244.707031 L 834.679688 244.707031 C 833.917969 244.707031 833.34375 245.316406 833.34375 246.039062 L 833.34375 326.375 C 833.34375 327.136719 833.960938 327.710938 834.679688 327.710938 L 859.332031 327.710938 C 860.097656 327.710938 860.667969 327.101562 860.667969 326.375 L 860.667969 246.039062 C 860.703125 245.316406 860.097656 244.707031 859.332031 244.707031 Z M 816.484375 325.042969 L 794.542969 325.042969 L 794.542969 262.960938 L 816.484375 262.960938 Z M 817.820312 260.253906 L 793.167969 260.253906 C 792.40625 260.253906 791.832031 260.863281 791.832031 261.589844 L 791.832031 326.375 C 791.832031 327.136719 792.445312 327.710938 793.167969 327.710938 L 817.820312 327.710938 C 818.582031 327.710938 819.15625 327.101562 819.15625 326.375 L 819.15625 261.589844 C 819.195312 260.863281 818.582031 260.253906 817.820312 260.253906 " fill-opacity="1" fill-rule="nonzero"/></g></svg>